<?xml version="1.0" encoding="utf-8"?>
<!-- Generator: Adobe Illustrator 24.3.0, SVG Export Plug-In . SVG Version: 6.00 Build 0)  -->
<svg version="1.1" id="Layer_1" xmlns="http://www.w3.org/2000/svg" xmlns:xlink="http://www.w3.org/1999/xlink" x="0px" y="0px"
	 viewBox="0 0 600 600" style="enable-background:new 0 0 600 600;" xml:space="preserve">
<style type="text/css">
	.st0{fill:#FFFFFF;}
</style>
<path class="st0" d="M300,554c-34.28,0-67.54-6.72-98.88-19.97c-30.25-12.79-57.41-31.11-80.73-54.42
	c-23.32-23.32-41.63-50.48-54.42-80.73C52.72,367.54,46,334.28,46,300h53.45c0,27.09,5.3,53.35,15.75,78.06
	c10.1,23.88,24.56,45.33,42.99,63.76c18.43,18.43,39.88,32.89,63.76,42.99c24.71,10.45,50.97,15.75,78.06,15.75V554z"/>
<path class="st0" d="M554,300h-53.45c0-27.09-5.3-53.35-15.75-78.06c-10.1-23.88-24.56-45.33-42.99-63.76
	c-18.43-18.43-39.88-32.89-63.76-42.99c-24.71-10.45-50.97-15.75-78.06-15.75V46c34.28,0,67.54,6.72,98.88,19.97
	c30.25,12.79,57.41,31.1,80.73,54.42c23.32,23.32,41.63,50.48,54.42,80.73C547.28,232.46,554,265.72,554,300z"/>
<circle class="st0" cx="390.44" cy="393.85" r="42.66"/>
<rect x="273.28" y="168.61" class="st0" width="53.45" height="182.59"/>
<circle class="st0" cx="209.56" cy="240.28" r="42.66"/>
<rect x="273.28" y="325.03" class="st0" width="53.45" height="106.37"/>
<circle class="st0" cx="300" cy="168.61" r="26.72"/>
<circle class="st0" cx="300" cy="431.39" r="26.72"/>
<circle class="st0" cx="299.88" cy="72.72" r="26.72"/>
<circle class="st0" cx="299.88" cy="527.28" r="26.72"/>
<circle class="st0" cx="527.28" cy="300" r="26.72"/>
<circle class="st0" cx="72.72" cy="300" r="26.72"/>
</svg>
